<svg width="21" height="30" viewBox="0 0 21 30" fill="none" xmlns="http://www.w3.org/2000/svg">
<path d="M8 29.0471V0.944802C8 0.421605 7.55026 0 6.98347 0H1.01653C0.449742 0 0 0.421605 0 0.944802V29.0471C0 29.5703 0.449742 30 1.01653 30H6.98347C7.55026 30 8 29.5784 8 29.0471Z" fill="#B3B3B3"/>
<path d="M19.9835 0H14.0165C13.4584 0 13 0.421605 13 0.944802V29.0471C13 29.5703 13.4497 30 14.0165 30H19.9835C20.5416 30 21 29.5784 21 29.0471V0.944802C21 0.421605 20.5503 0 19.9835 0Z" fill="#B3B3B3"/>
</svg>
