<svg width="20" height="20" viewBox="0 0 20 20" fill="none" xmlns="http://www.w3.org/2000/svg">
<path d="M9.99998 0C7.67546 0.00823729 5.42643 0.826025 3.63952 2.31277C1.85262 3.79952 0.639475 5.86234 0.208661 8.1466C-0.222153 10.4309 0.156274 12.7939 1.27888 14.8293C2.40149 16.8648 4.19815 18.4456 6.35998 19.3C6.25998 18.51 6.18998 17.3 6.38998 16.43L7.55998 11.46C7.55998 11.46 7.25998 10.86 7.25998 9.98C7.25998 8.59 8.06998 7.56 9.07998 7.56C9.92998 7.56 10.35 8.2 10.35 8.96C10.35 9.82 9.79998 11.1 9.50998 12.29C9.26998 13.29 10.01 14.1 11 14.1C12.78 14.1 14.14 12.23 14.14 9.53C14.14 7.13 12.42 5.47 9.95998 5.47C9.37557 5.44433 8.79202 5.53734 8.24456 5.74342C7.69709 5.94951 7.19705 6.26438 6.77463 6.66904C6.35221 7.07371 6.01616 7.55977 5.78678 8.09789C5.55739 8.63601 5.43942 9.21503 5.43998 9.8C5.43998 10.66 5.76998 11.58 6.17998 12.08C6.25998 12.18 6.26998 12.27 6.23998 12.37L5.95998 13.5C5.91998 13.68 5.80998 13.73 5.62998 13.64C4.36998 13.05 3.58998 11.24 3.58998 9.76C3.58998 6.61 5.88998 3.72 10.21 3.72C13.67 3.72 16.38 6.18 16.38 9.49C16.38 12.94 14.2 15.71 11.18 15.71C10.18 15.71 9.21998 15.18 8.89998 14.56L8.26998 16.93C7.97485 17.8577 7.55787 18.7421 7.02998 19.56C8.40381 19.9816 9.85236 20.1021 11.277 19.9133C12.7016 19.7245 14.0687 19.2309 15.2854 18.4661C16.502 17.7014 17.5395 16.6833 18.3272 15.4814C19.115 14.2795 19.6344 12.9219 19.8501 11.5011C20.0658 10.0804 19.9728 8.62979 19.5774 7.24822C19.1819 5.86664 18.4934 4.58652 17.5586 3.49506C16.6238 2.40359 15.4648 1.52642 14.1604 0.923296C12.8561 0.320168 11.437 0.00525257 9.99998 0Z" fill="white"/>
</svg>
