<svg width="20" height="17" viewBox="0 0 20 17" fill="none" xmlns="http://www.w3.org/2000/svg">
<path d="M20 1.88C19.25 2.25 18.5 2.38 17.62 2.5C18.5 2 19.12 1.25 19.37 0.25C18.5606 0.731306 17.6743 1.06959 16.75 1.25C15.9485 0.46227 14.8737 0.0144601 13.75 0C11.62 0 9.75 1.88 9.75 4.13C9.75 4.5 9.75 4.75 9.88 5C8.24216 4.93823 6.63643 4.52707 5.17046 3.79408C3.70448 3.0611 2.41212 2.02321 1.38 0.75C1.00812 1.39563 0.834247 2.13634 0.88 2.88C0.891623 3.55196 1.06825 4.21077 1.39434 4.79842C1.72043 5.38608 2.18597 5.88456 2.75 6.25C2.12 6.25 1.5 6 0.87 5.75C0.87 7.75 2.25 9.38 4.12 9.75C3.75 9.88 3.37 9.88 3 9.88C2.75 9.88 2.5 9.88 2.25 9.75C2.75 11.38 4.25 12.63 6.13 12.63C4.67779 13.7963 2.8622 14.4156 1 14.38H0C1.87496 15.5591 4.03554 16.2056 6.25 16.25C13.75 16.25 17.88 10 17.88 4.62V4.12C18.7387 3.53355 19.4617 2.76969 20 1.88Z" fill="white"/>
</svg>
