<svg width="23" height="16" viewBox="0 0 23 16" fill="none" xmlns="http://www.w3.org/2000/svg">
<path d="M9.03 11.38V4.62L14.97 8L9.03 11.38ZM22.23 2.5C22.1026 2.01772 21.8508 1.57733 21.4998 1.22285C21.1488 0.868375 20.711 0.612223 20.23 0.48C18.46 2.98023e-08 11.35 0 11.35 0C11.35 0 4.25 2.98023e-08 2.48 0.48C1.99901 0.612223 1.56115 0.868375 1.21018 1.22285C0.859213 1.57733 0.607431 2.01772 0.48 2.5C2.98023e-08 4.28 0 8 0 8C0 8 2.98023e-08 11.72 0.47 13.5C0.598299 13.9835 0.851586 14.4247 1.20441 14.7793C1.55723 15.1338 1.99717 15.3893 2.48 15.52C4.25 16 11.36 16 11.36 16C11.36 16 18.46 16 20.23 15.52C20.711 15.3878 21.1488 15.1316 21.4998 14.7771C21.8508 14.4227 22.1026 13.9823 22.23 13.5C22.71 11.72 22.71 8 22.71 8C22.71 8 22.71 4.28 22.24 2.5H22.23Z" fill="white"/>
</svg>
