<svg width="195" height="50" viewBox="0 0 195 50" fill="none" xmlns="http://www.w3.org/2000/svg">
<path d="M49 35H0L24.5 9L49 35ZM13.3075 22.1309L16.6442 25.6702L19.981 22.1309L16.6442 18.5812L13.3075 22.1309ZM16.6442 34.0052L19.981 30.466L16.6442 26.9162L13.3075 30.466L16.6442 34.0052ZM32.4083 34.0052L35.745 30.466L32.4083 26.9162L29.019 30.466L32.4083 34.0052ZM28.4673 14.4031C28.4473 14.4376 28.4207 14.4694 28.3885 14.4974C27.3507 15.6178 26.2997 16.7382 25.2357 17.8482C25.1437 17.9424 25.2357 18.0052 25.2357 18.089L28.3097 21.356L28.4542 21.4921L31.7909 17.9634L28.4673 14.4031ZM8.78847 34.0052L8.91984 33.8691L11.9938 30.6126C12.0428 30.5717 12.0702 30.5173 12.0702 30.4607C12.0702 30.4042 12.0428 30.3498 11.9938 30.3089C11.0611 29.3456 10.1547 28.3613 9.23512 27.3874L8.78847 26.9162L5.45174 30.466L8.78847 34.0052ZM17.2354 17.9529L20.5721 21.4921L20.6772 21.3979L23.8169 18.0681C23.922 17.9529 23.8169 17.89 23.8169 17.8063L20.7429 14.5602L20.6115 14.4241L17.2354 17.9529ZM17.2354 26.3298L20.5721 29.8691L20.7429 29.7016C21.7413 28.6545 22.7528 27.6073 23.7643 26.4869C23.7926 26.4663 23.8152 26.4412 23.8307 26.4133C23.8461 26.3853 23.8541 26.3551 23.8541 26.3246C23.8541 26.2941 23.8461 26.2639 23.8307 26.2359C23.8152 26.208 23.7926 26.1829 23.7643 26.1623C22.8185 25.1675 21.8727 24.1728 20.9399 23.1675L20.5721 22.7906L17.2354 26.3298ZM32.9995 26.3298L36.3362 29.8691L39.6729 26.3298L36.3362 22.7906L32.9995 26.3298ZM28.4673 22.7801V22.8534L25.3013 26.2147C25.1962 26.3089 25.2357 26.3717 25.3013 26.4555L28.244 29.5969C28.3228 29.6911 28.4147 29.7853 28.5198 29.8901L31.8566 26.3508L28.4673 22.7801ZM12.7295 29.8482C12.7453 29.8175 12.7675 29.7892 12.7952 29.7644L15.9611 26.4031C16.0531 26.2984 15.9611 26.2461 15.9611 26.1623L12.8477 22.8953C12.8069 22.8484 12.7583 22.8061 12.7032 22.7696L9.37962 26.2984L12.7295 29.8482ZM32.3558 25.6597L35.6925 22.1204L32.3558 18.5916L29.019 22.1309L32.3558 25.6597ZM24.4737 17.2827L27.8105 13.7435L24.5263 10.2775H24.4606L21.2552 13.712C21.2354 13.7371 21.2249 13.7662 21.2249 13.7958C21.2249 13.8255 21.2354 13.8545 21.2552 13.8796L24.4737 17.2827ZM24.4737 25.6597L27.8105 22.1204L24.5 18.5812L21.1633 22.1309L24.4737 25.6597ZM24.4737 34.0366L27.8105 30.4974L24.4737 26.9476L21.1633 30.466L24.4737 34.0366ZM40.2378 34.0366L43.5745 30.4974L40.2509 26.9791H40.1853L36.9668 30.3613C36.8617 30.4764 36.9668 30.5288 36.9668 30.6021L39.5941 33.4398L40.2378 34.0366ZM1.89169 34.2356H7.88204L4.91314 31.0942L1.89169 34.2356ZM41.1705 34.2356H47.1083L44.1394 31.0942L41.1705 34.2356ZM23.5542 34.2356L20.5721 31.0942L17.5901 34.2356H23.5542ZM33.3147 34.2356H39.2525L36.2836 31.0942L33.3147 34.2356ZM31.3968 34.2356L28.4279 31.0942L25.459 34.2356H31.3968ZM15.6327 34.2356L12.6638 31.0942L9.69491 34.2356H15.6327Z" fill="white"/>
<path d="M71.26 33.72H71.4C71.5493 33.72 71.68 33.6733 71.792 33.58C71.904 33.468 71.9973 33.3373 72.072 33.188C72.1653 33.0387 72.2307 32.88 72.268 32.712C72.324 32.544 72.352 32.3853 72.352 32.236V17.256C72.352 17.1253 72.324 16.976 72.268 16.808C72.2307 16.64 72.1653 16.4813 72.072 16.332C71.9973 16.1827 71.904 16.0613 71.792 15.968C71.68 15.856 71.5493 15.8 71.4 15.8H71.26V15.52H75.292V15.8H75.152C75.0027 15.8 74.872 15.856 74.76 15.968C74.648 16.0613 74.5547 16.1827 74.48 16.332C74.4053 16.4813 74.34 16.64 74.284 16.808C74.2467 16.976 74.228 17.1253 74.228 17.256V32.964H80.36C80.7147 32.964 81.0227 32.88 81.284 32.712C81.5453 32.544 81.76 32.3387 81.928 32.096C82.1147 31.8347 82.2453 31.564 82.32 31.284C82.4133 30.9853 82.46 30.7147 82.46 30.472H82.74V34H71.26V33.72ZM97.5632 15.24C99.0192 15.24 100.326 15.5013 101.483 16.024C102.641 16.528 103.621 17.2187 104.423 18.096C105.245 18.9547 105.87 19.9627 106.299 21.12C106.747 22.2587 106.971 23.4533 106.971 24.704C106.971 26.104 106.71 27.392 106.187 28.568C105.683 29.744 104.983 30.752 104.087 31.592C103.191 32.432 102.146 33.0947 100.951 33.58C99.7752 34.0467 98.5152 34.28 97.1712 34.28C95.7339 34.28 94.4365 34.0187 93.2792 33.496C92.1405 32.9733 91.1699 32.2827 90.3672 31.424C89.5832 30.5653 88.9765 29.576 88.5472 28.456C88.1179 27.336 87.9032 26.1693 87.9032 24.956C87.9032 23.7613 88.1179 22.5853 88.5472 21.428C88.9765 20.252 89.6019 19.2067 90.4232 18.292C91.2632 17.3773 92.2805 16.64 93.4752 16.08C94.6699 15.52 96.0325 15.24 97.5632 15.24ZM97.5352 33.3C98.7859 33.244 99.8779 32.964 100.811 32.46C101.763 31.9373 102.557 31.284 103.191 30.5C103.826 29.6973 104.293 28.82 104.591 27.868C104.909 26.916 105.067 25.9733 105.067 25.04C105.067 24.0133 104.881 22.9773 104.507 21.932C104.134 20.8867 103.602 19.944 102.911 19.104C102.221 18.2453 101.39 17.5547 100.419 17.032C99.4672 16.4907 98.3939 16.22 97.1992 16.22C96.0419 16.22 95.0059 16.4813 94.0912 17.004C93.1765 17.508 92.3925 18.1613 91.7392 18.964C91.1045 19.7667 90.6192 20.6627 90.2832 21.652C89.9472 22.6413 89.7792 23.612 89.7792 24.564C89.7792 25.5907 89.9752 26.6267 90.3672 27.672C90.7592 28.6987 91.3005 29.632 91.9912 30.472C92.6819 31.312 93.4939 31.9933 94.4272 32.516C95.3792 33.0387 96.4152 33.3 97.5352 33.3ZM114.428 15.52H118.404V15.8H118.264C118.115 15.8 117.984 15.856 117.872 15.968C117.76 16.0613 117.657 16.1827 117.564 16.332C117.489 16.4813 117.433 16.64 117.396 16.808C117.359 16.976 117.34 17.1253 117.34 17.256V28.316C117.34 29.044 117.415 29.716 117.564 30.332C117.713 30.948 117.965 31.48 118.32 31.928C118.675 32.376 119.141 32.7307 119.72 32.992C120.299 33.2347 121.008 33.356 121.848 33.356C122.781 33.356 123.528 33.2067 124.088 32.908C124.648 32.6093 125.077 32.2267 125.376 31.76C125.675 31.2747 125.871 30.7333 125.964 30.136C126.057 29.5387 126.104 28.9507 126.104 28.372V17.256C126.104 17.1253 126.085 16.976 126.048 16.808C126.011 16.64 125.945 16.4813 125.852 16.332C125.777 16.1827 125.684 16.0613 125.572 15.968C125.46 15.856 125.339 15.8 125.208 15.8H125.068V15.52H128.12V15.8H127.98C127.831 15.8 127.7 15.856 127.588 15.968C127.495 16.0613 127.401 16.1827 127.308 16.332C127.233 16.4813 127.177 16.64 127.14 16.808C127.103 16.976 127.084 17.1253 127.084 17.256V28.288C127.084 29.5013 126.935 30.5 126.636 31.284C126.337 32.0493 125.927 32.656 125.404 33.104C124.881 33.552 124.265 33.86 123.556 34.028C122.865 34.196 122.128 34.28 121.344 34.28C120.504 34.28 119.72 34.1867 118.992 34C118.283 33.832 117.667 33.524 117.144 33.076C116.621 32.628 116.211 32.0213 115.912 31.256C115.613 30.472 115.464 29.492 115.464 28.316V17.256C115.464 17.1253 115.445 16.976 115.408 16.808C115.371 16.64 115.305 16.4813 115.212 16.332C115.137 16.1827 115.044 16.0613 114.932 15.968C114.82 15.856 114.699 15.8 114.568 15.8H114.428V15.52ZM138.076 16.5C138.076 16.612 138.104 16.752 138.16 16.92L143.088 30.192L148.016 16.78C148.034 16.7427 148.053 16.6867 148.072 16.612C148.09 16.5373 148.1 16.4813 148.1 16.444C148.1 16.22 148.006 16.0613 147.82 15.968C147.652 15.856 147.493 15.8 147.344 15.8V15.52H150.396V15.8C150.116 15.8 149.854 15.8747 149.612 16.024C149.388 16.1733 149.21 16.4253 149.08 16.78L142.668 34.336L136.116 16.864C136.004 16.584 135.836 16.3413 135.612 16.136C135.406 15.9307 135.145 15.8187 134.828 15.8V15.52H138.804V15.8C138.636 15.8 138.468 15.8653 138.3 15.996C138.15 16.108 138.076 16.276 138.076 16.5ZM161.076 33.72H161.216V34H157.268V33.72H157.408C157.538 33.72 157.66 33.664 157.772 33.552C157.884 33.44 157.977 33.3093 158.052 33.16C158.145 33.0107 158.21 32.852 158.248 32.684C158.285 32.4973 158.304 32.3293 158.304 32.18V17.256C158.304 17.1253 158.285 16.976 158.248 16.808C158.21 16.64 158.145 16.4813 158.052 16.332C157.977 16.1827 157.884 16.0613 157.772 15.968C157.66 15.856 157.538 15.8 157.408 15.8H157.268V15.52H162.14C164.006 15.52 165.444 15.884 166.452 16.612C167.478 17.34 167.992 18.4133 167.992 19.832C167.992 20.5413 167.87 21.1667 167.628 21.708C167.404 22.2307 167.096 22.688 166.704 23.08C166.312 23.4533 165.845 23.7613 165.304 24.004C164.781 24.228 164.221 24.396 163.624 24.508L165.64 27.588C166.125 28.3347 166.62 29.072 167.124 29.8C167.628 30.5093 168.122 31.2467 168.608 32.012C168.738 32.1987 168.878 32.3947 169.028 32.6C169.196 32.8053 169.364 32.992 169.532 33.16C169.718 33.328 169.905 33.468 170.092 33.58C170.297 33.6733 170.502 33.72 170.708 33.72V34H169.504C168.757 34 168.141 33.8227 167.656 33.468C167.189 33.0947 166.797 32.6653 166.48 32.18C165.64 30.948 164.8 29.6973 163.96 28.428C163.138 27.1587 162.317 25.908 161.496 24.676C161.29 24.6573 161.066 24.6387 160.824 24.62C160.6 24.5827 160.385 24.5453 160.18 24.508V32.18C160.18 32.3293 160.198 32.4973 160.236 32.684C160.273 32.852 160.329 33.0107 160.404 33.16C160.497 33.3093 160.59 33.44 160.684 33.552C160.796 33.664 160.926 33.72 161.076 33.72ZM160.18 16.472V23.584H160.32C160.469 23.6027 160.702 23.6213 161.02 23.64C161.356 23.64 161.766 23.64 162.252 23.64C162.644 23.64 163.054 23.584 163.484 23.472C163.932 23.3413 164.342 23.136 164.716 22.856C165.108 22.5573 165.425 22.1747 165.668 21.708C165.929 21.2413 166.06 20.6533 166.06 19.944C166.06 19.2347 165.92 18.656 165.64 18.208C165.378 17.76 165.005 17.4053 164.52 17.144C164.053 16.8827 163.484 16.7053 162.812 16.612C162.14 16.5187 161.402 16.472 160.6 16.472H160.18ZM177.389 33.72H177.529C177.678 33.72 177.809 33.6733 177.921 33.58C178.033 33.468 178.126 33.3373 178.201 33.188C178.294 33.0387 178.36 32.88 178.397 32.712C178.453 32.544 178.481 32.3853 178.481 32.236V17.256C178.481 17.1253 178.453 16.976 178.397 16.808C178.36 16.64 178.294 16.4813 178.201 16.332C178.126 16.1827 178.033 16.0613 177.921 15.968C177.809 15.856 177.678 15.8 177.529 15.8H177.389V15.52H188.169V18.124H187.889C187.852 17.6947 187.684 17.3213 187.385 17.004C187.086 16.668 186.62 16.5 185.985 16.5H180.357V23.584H185.005C185.434 23.584 185.789 23.4533 186.069 23.192C186.368 22.9307 186.517 22.6227 186.517 22.268H186.797V25.768H186.517C186.517 25.432 186.377 25.1427 186.097 24.9C185.817 24.6573 185.453 24.536 185.005 24.536H180.357V33.02H186.489C186.844 33.02 187.152 32.936 187.413 32.768C187.674 32.6 187.889 32.404 188.057 32.18C188.244 31.9373 188.374 31.6853 188.449 31.424C188.542 31.144 188.589 30.9107 188.589 30.724H188.869V34H177.389V33.72Z" fill="white"/>
</svg>
