<svg width="21" height="20" viewBox="0 0 21 20" fill="none" xmlns="http://www.w3.org/2000/svg">
<path d="M12.02 0C13.82 0 14.2 0.0199999 15.12 0.0599999C16.18 0.11 16.91 0.28 17.54 0.53C18.2 0.78 18.76 1.13 19.31 1.68C19.87 2.23 20.21 2.79 20.47 3.45C20.72 4.08 20.88 4.81 20.93 5.88C20.98 6.83 20.99 7.2 20.99 9.2V10.8C20.99 12.8 20.98 13.17 20.93 14.12C20.9143 14.9468 20.7588 15.7651 20.47 16.54C20.21 17.2 19.87 17.76 19.32 18.31C18.76 18.87 18.2 19.21 17.54 19.47C16.91 19.72 16.18 19.88 15.12 19.93C14.17 19.98 13.79 19.99 11.79 19.99H10.2C8.20003 19.99 7.83003 19.98 6.87003 19.93C6.04321 19.9141 5.22502 19.7586 4.45003 19.47C3.78364 19.2195 3.17968 18.8271 2.68003 18.32C2.16784 17.8186 1.77186 17.211 1.52003 16.54C1.23165 15.765 1.07613 14.9468 1.06003 14.12C1.01101 13.0874 0.991 12.0537 1.00003 11.02V8.97C1.00003 7.17 1.02003 6.79 1.06003 5.87C1.11003 4.81 1.28003 4.08 1.52003 3.45C1.78003 2.79 2.12003 2.23 2.68003 1.68C3.17521 1.16743 3.78047 0.774176 4.45003 0.53C5.22448 0.238206 6.04266 0.079305 6.87003 0.0599999C7.79003 0.0199999 8.17003 0 9.97003 0H12.02ZM12.04 1.8H9.95003C8.22003 1.8 7.85003 1.82 6.95003 1.86C5.98003 1.9 5.45003 2.06 5.10003 2.2C4.63003 2.38 4.30003 2.6 3.95003 2.95C3.60003 3.3 3.38003 3.63 3.20003 4.1C3.07003 4.45 2.90003 4.98 2.86003 5.96C2.82003 6.86 2.80003 7.22 2.80003 8.96V11.04C2.80003 12.78 2.82003 13.14 2.86003 14.04C2.90003 15.01 3.06003 15.54 3.20003 15.89C3.38003 16.36 3.60003 16.69 3.95003 17.04C4.30003 17.39 4.63003 17.61 5.10003 17.79C5.45003 17.93 5.98003 18.09 6.96003 18.13C7.93003 18.18 8.28003 18.19 10.44 18.19H11.55C13.72 18.19 14.06 18.18 15.04 18.13C16.01 18.09 16.54 17.93 16.89 17.79C17.36 17.61 17.69 17.39 18.04 17.04C18.39 16.69 18.61 16.36 18.79 15.89C18.93 15.54 19.09 15.01 19.13 14.04C19.18 13.06 19.19 12.72 19.19 10.55V9.45C19.19 7.28 19.18 6.93 19.13 5.95C19.09 4.98 18.93 4.45 18.79 4.1C18.6291 3.66543 18.3728 3.27246 18.04 2.95C17.7178 2.61692 17.3248 2.3606 16.89 2.2C16.2969 1.98317 15.6715 1.86822 15.04 1.86C14.0408 1.81227 13.0404 1.79226 12.04 1.8ZM11 4.86C12.3619 4.86 13.668 5.40101 14.631 6.36401C15.594 7.32701 16.135 8.63311 16.135 9.995C16.135 11.3569 15.594 12.663 14.631 13.626C13.668 14.589 12.3619 15.13 11 15.13C9.63814 15.13 8.33204 14.589 7.36904 13.626C6.40604 12.663 5.86503 11.3569 5.86503 9.995C5.86503 8.63311 6.40604 7.32701 7.36904 6.36401C8.33204 5.40101 9.63814 4.86 11 4.86ZM11 6.66C10.1155 6.66 9.26726 7.01136 8.64183 7.6368C8.0164 8.26223 7.66503 9.1105 7.66503 9.995C7.66503 10.8795 8.0164 11.7278 8.64183 12.3532C9.26726 12.9786 10.1155 13.33 11 13.33C11.8845 13.33 12.7328 12.9786 13.3582 12.3532C13.9837 11.7278 14.335 10.8795 14.335 9.995C14.335 9.1105 13.9837 8.26223 13.3582 7.6368C12.7328 7.01136 11.8845 6.66 11 6.66ZM16.33 3.46C16.6483 3.46 16.9535 3.58643 17.1786 3.81147C17.4036 4.03652 17.53 4.34174 17.53 4.66C17.53 4.97826 17.4036 5.28348 17.1786 5.50853C16.9535 5.73357 16.6483 5.86 16.33 5.86C16.0118 5.86 15.7065 5.73357 15.4815 5.50853C15.2565 5.28348 15.13 4.97826 15.13 4.66C15.13 4.34174 15.2565 4.03652 15.4815 3.81147C15.7065 3.58643 16.0118 3.46 16.33 3.46Z" fill="white"/>
</svg>
